<svg width="25" height="25" viewBox="0 0 25 25" fill="none" xmlns="http://www.w3.org/2000/svg">
<path d="M24.433 7.21806C24.3754 5.94024 24.169 5.06594 23.8761 4.30213C23.5689 3.51429 23.1608 2.84176 22.4934 2.17883C21.8261 1.5159 21.1588 1.09796 20.3714 0.795319C19.6081 0.497481 18.7343 0.295719 17.4572 0.238073C16.1754 0.180427 15.7673 0.166016 12.5122 0.166016C9.2524 0.166016 8.84431 0.180427 7.56726 0.238073C6.2902 0.295719 5.41643 0.502285 4.65308 0.795319C3.86092 1.10277 3.18878 1.51109 2.52625 2.17883C1.86372 2.84656 1.44603 3.51429 1.14357 4.30213C0.850716 5.06594 0.644274 5.94024 0.586663 7.21806C0.529051 8.50068 0.514648 8.90901 0.514648 12.166C0.514648 15.4278 0.529051 15.8362 0.586663 17.114C0.644274 18.3918 0.850716 19.2661 1.14357 20.0299C1.45084 20.8177 1.85892 21.4903 2.52625 22.1532C3.18878 22.8209 3.86092 23.2341 4.64827 23.5367C5.41163 23.8346 6.2854 24.0363 7.56246 24.094C8.84431 24.1516 9.2524 24.166 12.5074 24.166C15.7673 24.166 16.1754 24.1516 17.4524 24.094C18.7295 24.0363 19.6033 23.8297 20.3666 23.5367C21.154 23.2293 21.8261 22.8209 22.4886 22.1532C23.1512 21.4855 23.5689 20.8177 23.8713 20.0299C24.169 19.2661 24.3706 18.3918 24.4282 17.114C24.4858 15.8313 24.5002 15.423 24.5002 12.166C24.5002 8.90901 24.4906 8.49588 24.433 7.21806ZM22.2774 17.0179C22.2246 18.19 22.0278 18.8289 21.8645 19.2469C21.6485 19.8041 21.3844 20.2077 20.9619 20.6304C20.5395 21.0531 20.141 21.3077 19.5793 21.5335C19.1568 21.6968 18.5182 21.8938 17.3516 21.9466C16.089 22.0043 15.7097 22.0187 12.5026 22.0187C9.2956 22.0187 8.91633 22.0043 7.65368 21.9466C6.48224 21.8938 5.84371 21.6968 5.42603 21.5335C4.86912 21.3173 4.46584 21.0531 4.04335 20.6304C3.62087 20.2077 3.36642 19.8089 3.14077 19.2469C2.97754 18.8241 2.7807 18.1852 2.72789 17.0179C2.67028 15.7545 2.65588 15.375 2.65588 12.166C2.65588 8.95705 2.67028 8.57755 2.72789 7.31413C2.7807 6.142 2.97754 5.50309 3.14077 5.08515C3.35682 4.52791 3.62087 4.12438 4.04335 3.70164C4.46584 3.27891 4.86432 3.0243 5.42603 2.79852C5.84851 2.63519 6.48704 2.43823 7.65368 2.38539C8.91633 2.32775 9.2956 2.31333 12.5026 2.31333C15.7097 2.31333 16.089 2.32775 17.3516 2.38539C18.5231 2.43823 19.1616 2.63519 19.5793 2.79852C20.1362 3.01469 20.5395 3.27891 20.9619 3.70164C21.3844 4.12438 21.6389 4.5231 21.8645 5.08515C22.0278 5.50789 22.2246 6.1468 22.2774 7.31413C22.335 8.57755 22.3494 8.95705 22.3494 12.166C22.3494 15.375 22.3302 15.7545 22.2774 17.0179Z" fill="#7F35FF"/>
<path d="M12.5028 5.99805C9.09413 5.99805 6.33838 8.76026 6.33838 12.1662C6.33838 15.5769 9.09893 18.3343 12.5028 18.3343C15.9067 18.3343 18.6672 15.5673 18.6672 12.1662C18.6672 8.75545 15.9115 5.99805 12.5028 5.99805ZM12.5028 16.1678C10.2944 16.1678 8.50361 14.3759 8.50361 12.1662C8.50361 9.95641 10.2944 8.16458 12.5028 8.16458C14.7113 8.16458 16.502 9.95641 16.502 12.1662C16.502 14.3759 14.7113 16.1678 12.5028 16.1678Z" fill="#7F35FF"/>
<path d="M18.9071 7.19871C19.7025 7.19871 20.3474 6.55349 20.3474 5.75756C20.3474 4.96163 19.7025 4.31641 18.9071 4.31641C18.1116 4.31641 17.4668 4.96163 17.4668 5.75756C17.4668 6.55349 18.1116 7.19871 18.9071 7.19871Z" fill="#7F35FF"/>
<path d="M0.5 12.166C0.5 15.4278 0.514403 15.8362 0.572014 17.114C0.629626 18.3918 0.836067 19.2661 1.12893 20.0299C1.43619 20.8177 1.84427 21.4903 2.5116 22.1532C3.17413 22.8161 3.84627 23.2341 4.63363 23.5367C5.39698 23.8346 6.27075 24.0363 7.54781 24.094C8.82967 24.1516 9.23775 24.166 12.4928 24.166C15.7527 24.166 16.1607 24.1516 17.4378 24.094C18.7148 24.0363 19.5886 23.8297 20.352 23.5367C21.1393 23.2293 21.8115 22.8209 22.474 22.1532C23.1365 21.4903 23.5542 20.8177 23.8567 20.0299C24.1543 19.2661 24.356 18.3918 24.4136 17.114C24.4712 15.8313 24.4856 15.423 24.4856 12.166C24.4856 8.90421 24.4712 8.49588 24.4136 7.21806C24.356 5.94024 24.1495 5.06594 23.8567 4.30213C23.5494 3.51429 23.1413 2.84176 22.474 2.17883C21.8163 1.51109 21.1441 1.09796 20.3568 0.795319C19.5934 0.497481 18.7196 0.295719 17.4426 0.238073C16.1607 0.180427 15.7526 0.166016 12.4976 0.166016C9.23775 0.166016 8.82967 0.180427 7.55261 0.238073C6.27555 0.295719 5.40178 0.502285 4.63843 0.795319C3.85107 1.10277 3.17894 1.51109 2.5164 2.17883C1.85387 2.84656 1.43619 3.51429 1.13373 4.30213C0.836067 5.06594 0.629626 5.94024 0.572014 7.21806C0.514403 8.49588 0.5 8.90421 0.5 12.166ZM2.66523 12.166C2.66523 8.96185 2.67964 8.57755 2.73725 7.31413C2.79006 6.142 2.9869 5.50309 3.15013 5.08515C3.36617 4.52791 3.63023 4.12438 4.05271 3.70164C4.47519 3.27891 4.87367 3.0243 5.43539 2.79852C5.85787 2.63519 6.4964 2.43823 7.66303 2.38539C8.92568 2.32775 9.30496 2.31333 12.512 2.31333C15.719 2.31333 16.0983 2.32775 17.361 2.38539C18.5324 2.43823 19.1709 2.63519 19.5886 2.79852C20.1455 3.01469 20.5488 3.27891 20.9713 3.70164C21.3938 4.12438 21.6482 4.5231 21.8739 5.08515C22.0371 5.50789 22.2339 6.1468 22.2868 7.31413C22.3444 8.57755 22.3588 8.95705 22.3588 12.166C22.3588 15.375 22.3444 15.7545 22.2868 17.0179C22.2339 18.19 22.0371 18.8289 21.8739 19.2469C21.6578 19.8041 21.3938 20.2077 20.9713 20.6304C20.5488 21.0531 20.1503 21.3077 19.5886 21.5335C19.1661 21.6968 18.5276 21.8938 17.361 21.9466C16.0983 22.0043 15.719 22.0187 12.512 22.0187C9.30496 22.0187 8.92568 22.0043 7.66303 21.9466C6.4916 21.8938 5.85307 21.6968 5.43539 21.5335C4.87848 21.3173 4.47519 21.0531 4.05271 20.6304C3.63023 20.2077 3.37578 19.8089 3.15013 19.2469C2.9869 18.8241 2.79006 18.1852 2.73725 17.0179C2.67483 15.7545 2.66523 15.3702 2.66523 12.166Z" fill="#7F35FF"/>
</svg>
