<svg width="25" height="25" viewBox="0 0 25 25" fill="none" xmlns="http://www.w3.org/2000/svg">
<g clip-path="url(#clip0_181_835)">
<path d="M0.5 3.36771C0.5 2.59549 0.770278 1.95842 1.31081 1.45651C1.85134 0.954571 2.55406 0.703613 3.41892 0.703613C4.26835 0.703613 4.95559 0.950702 5.4807 1.44493C6.02123 1.95458 6.29151 2.61866 6.29151 3.4372C6.29151 4.17852 6.02897 4.79626 5.50386 5.29049C4.96333 5.80014 4.2529 6.05496 3.37259 6.05496H3.34942C2.49999 6.05496 1.81275 5.80014 1.28764 5.29049C0.762541 4.78083 0.5 4.1399 0.5 3.36771ZM0.801158 23.638V8.16307H5.94402V23.638H0.801158ZM8.79344 23.638H13.9363V14.997C13.9363 14.4565 13.9981 14.0395 14.1216 13.7461C14.3378 13.221 14.666 12.777 15.1062 12.414C15.5463 12.0511 16.0984 11.8696 16.7625 11.8696C18.4923 11.8696 19.3571 13.0357 19.3571 15.3677V23.638H24.5V14.7654C24.5 12.4797 23.9595 10.7461 22.8784 9.56462C21.7973 8.38315 20.3687 7.79242 18.5927 7.79242C16.6004 7.79242 15.0483 8.64956 13.9363 10.3638V10.4102H13.9131L13.9363 10.3638V8.16307H8.79344C8.82432 8.65727 8.83977 10.1939 8.83977 12.7731C8.83977 15.3523 8.82432 18.9739 8.79344 23.638Z" fill="#7F35FF"/>
</g>
<defs>
<clipPath id="clip0_181_835">
<rect width="24" height="24" fill="white" transform="translate(0.5 0.166016)"/>
</clipPath>
</defs>
</svg>
