<svg width="23" height="23" viewBox="0 0 23 23" fill="none" xmlns="http://www.w3.org/2000/svg">
<path d="M21.47 17.496C21.47 17.856 21.39 18.226 21.22 18.586C21.05 18.946 20.83 19.286 20.54 19.606C20.05 20.146 19.51 20.536 18.9 20.786C18.3 21.036 17.65 21.166 16.95 21.166C15.93 21.166 14.84 20.926 13.69 20.436C12.54 19.946 11.39 19.286 10.25 18.456C9.1 17.616 8.01 16.686 6.97 15.656C5.94 14.616 5.01 13.526 4.18 12.386C3.36 11.246 2.7 10.106 2.22 8.97602C1.74 7.83602 1.5 6.74602 1.5 5.70602C1.5 5.02602 1.62 4.37602 1.86 3.77602C2.1 3.16602 2.48 2.60602 3.01 2.10602C3.65 1.47602 4.35 1.16602 5.09 1.16602C5.37 1.16602 5.65 1.22602 5.9 1.34602C6.16 1.46602 6.39 1.64602 6.57 1.90602L8.89 5.17602C9.07 5.42602 9.2 5.65602 9.29 5.87602C9.38 6.08602 9.43 6.29602 9.43 6.48602C9.43 6.72602 9.36 6.96602 9.22 7.19602C9.09 7.42602 8.9 7.66602 8.66 7.90602L7.9 8.69602C7.79 8.80602 7.74 8.93602 7.74 9.09602C7.74 9.17602 7.75 9.24602 7.77 9.32602C7.8 9.40602 7.83 9.46602 7.85 9.52602C8.03 9.85602 8.34 10.286 8.78 10.806C9.23 11.326 9.71 11.856 10.23 12.386C10.77 12.916 11.29 13.406 11.82 13.856C12.34 14.296 12.77 14.596 13.11 14.776C13.16 14.796 13.22 14.826 13.29 14.856C13.37 14.886 13.45 14.896 13.54 14.896C13.71 14.896 13.84 14.836 13.95 14.726L14.71 13.976C14.96 13.726 15.2 13.536 15.43 13.416C15.66 13.276 15.89 13.206 16.14 13.206C16.33 13.206 16.53 13.246 16.75 13.336C16.97 13.426 17.2 13.556 17.45 13.726L20.76 16.076C21.02 16.256 21.2 16.466 21.31 16.716C21.41 16.966 21.47 17.216 21.47 17.496Z" stroke="#7F35FF" stroke-width="2" stroke-miterlimit="10"/>
<path d="M18 8.16602C18 7.56602 17.53 6.64602 16.83 5.89602C16.19 5.20602 15.34 4.66602 14.5 4.66602" stroke="#7F35FF" stroke-width="2" stroke-linecap="round" stroke-linejoin="round"/>
<path d="M21.5 8.16602C21.5 4.29602 18.37 1.16602 14.5 1.16602" stroke="#7F35FF" stroke-width="2" stroke-linecap="round" stroke-linejoin="round"/>
</svg>
